<?xml version="1.0" encoding="UTF-8"?>
<svg version="1.1" xmlns="http://www.w3.org/2000/svg" width="128" height="128">
<path d="M0 0 C1.7325 0.1546875 1.7325 0.1546875 3.5 0.3125 C5.5 3.3125 5.5 3.3125 5.5 8.3125 C17.71 8.3125 29.92 8.3125 42.5 8.3125 C42.83 6.3325 43.16 4.3525 43.5 2.3125 C45.5 0.3125 45.5 0.3125 49 0 C50.7325 0.1546875 50.7325 0.1546875 52.5 0.3125 C54.6519437 3.54041555 54.70086443 4.59650809 54.5 8.3125 C55.07967529 8.29155273 55.65935059 8.27060547 56.2565918 8.24902344 C58.90004924 8.16553193 61.5432288 8.11373847 64.1875 8.0625 C65.09951172 8.02898438 66.01152344 7.99546875 66.95117188 7.9609375 C71.27608078 7.89802973 73.79492511 7.89428068 77.58203125 10.140625 C80.66697722 13.63396504 80.62396971 16.54981933 80.62597656 21.03393555 C80.62978333 22.20913254 80.63359009 23.38432953 80.63751221 24.59513855 C80.63853943 25.86698502 80.63956665 27.13883148 80.640625 28.44921875 C80.65426022 30.4488634 80.66792553 32.44850835 80.68333054 34.44814014 C80.72125493 39.37846326 80.75262288 44.30852788 80.75048828 49.23901367 C80.74985134 52.003587 80.76238438 54.76749581 80.78948975 57.53193665 C80.81473944 60.13288446 80.82127575 62.73409924 80.80670166 65.33512878 C80.91094414 72.89804867 81.92783261 77.32817675 86.5 83.3125 C89.80646508 91.20793782 89.84073399 100.6381903 86.9375 108.6875 C83.06405665 116.99358099 76.29725649 123.95710537 67.76953125 127.421875 C59.19437905 129.75775875 48.72270996 129.50074798 40.67578125 125.6328125 C36.26448348 122.95593881 31.6204626 120.10098827 29.63288879 115.15452576 C28.50713861 112.47761778 27.43522867 110.48738267 25.5 108.3125 C21.61342285 107.02953439 17.87069094 107.24153429 13.8125 107.390625 C12.67723877 107.39302185 11.54197754 107.3954187 10.37231445 107.39788818 C6.74638584 107.41041158 3.1250128 107.48218995 -0.5 107.5625 C-4.12437254 107.62164007 -7.74748961 107.66763464 -11.37231445 107.68426514 C-13.62635765 107.6966223 -15.88043809 107.73446914 -18.13354492 107.80059814 C-19.6703894 107.81470734 -19.6703894 107.81470734 -21.23828125 107.82910156 C-22.13587158 107.84958557 -23.03346191 107.87006958 -23.95825195 107.89117432 C-27.79394324 107.01791072 -29.18781226 105.46067784 -31.5 102.3125 C-32.20129607 99.41217413 -32.17412631 96.61139182 -32.13110352 93.63842773 C-32.13825882 92.77605499 -32.14541412 91.91368225 -32.15278625 91.025177 C-32.16966158 88.1816064 -32.15027951 85.33961481 -32.12890625 82.49609375 C-32.12973498 80.51741912 -32.13219452 78.53874457 -32.13621521 76.56007385 C-32.13907231 72.41654702 -32.12437906 68.273561 -32.09692383 64.13012695 C-32.06281905 58.8179255 -32.06886756 53.50668966 -32.0875864 48.1944418 C-32.09815172 44.1100509 -32.08922318 40.02588494 -32.07420158 35.94151497 C-32.06901738 33.98269379 -32.06950446 32.02384915 -32.07574654 30.06503105 C-32.08119395 27.32856543 -32.06084012 24.59348548 -32.03344727 21.85717773 C-32.04323608 20.64220863 -32.04323608 20.64220863 -32.05322266 19.4026947 C-31.9917918 15.79570406 -31.82958271 13.73935132 -29.59165955 10.84095764 C-26.53209462 8.60521359 -24.883867 8.18994089 -21.1484375 8.21484375 C-20.29765625 8.21806641 -19.446875 8.22128906 -18.5703125 8.22460938 C-17.68085938 8.23298828 -16.79140625 8.24136719 -15.875 8.25 C-14.9778125 8.25451172 -14.080625 8.25902344 -13.15625 8.26367188 C-10.93743352 8.27547409 -8.71874982 8.29193845 -6.5 8.3125 C-6.37625 7.36375 -6.2525 6.415 -6.125 5.4375 C-5.23699577 0.99747885 -4.52983636 0.40444967 0 0 Z " fill="#E9F1F9" transform="translate(35.5,-0.3125)"/>
<path d="M0 0 C1.7325 0.1546875 1.7325 0.1546875 3.5 0.3125 C5.5 3.3125 5.5 3.3125 5.5 8.3125 C17.71 8.3125 29.92 8.3125 42.5 8.3125 C42.83 6.3325 43.16 4.3525 43.5 2.3125 C45.5 0.3125 45.5 0.3125 49 0 C50.7325 0.1546875 50.7325 0.1546875 52.5 0.3125 C54.6519437 3.54041555 54.70086443 4.59650809 54.5 8.3125 C55.07967529 8.29155273 55.65935059 8.27060547 56.2565918 8.24902344 C58.90004924 8.16553193 61.5432288 8.11373847 64.1875 8.0625 C65.09951172 8.02898438 66.01152344 7.99546875 66.95117188 7.9609375 C71.27608078 7.89802973 73.79492511 7.89428068 77.58203125 10.140625 C84.3144957 17.76435256 80.5 28.33553482 80.5 38.3125 C43.54 38.3125 6.58 38.3125 -31.5 38.3125 C-31.5 13.3125 -31.5 13.3125 -27.5 9.3125 C-25.15147472 8.13823736 -23.76225935 8.19741827 -21.1484375 8.21484375 C-20.29765625 8.21806641 -19.446875 8.22128906 -18.5703125 8.22460938 C-17.68085938 8.23298828 -16.79140625 8.24136719 -15.875 8.25 C-14.9778125 8.25451172 -14.080625 8.25902344 -13.15625 8.26367188 C-10.93743352 8.27547409 -8.71874982 8.29193845 -6.5 8.3125 C-6.37625 7.36375 -6.2525 6.415 -6.125 5.4375 C-5.23699577 0.99747885 -4.52983636 0.40444967 0 0 Z " fill="#FE4155" transform="translate(35.5,-0.3125)"/>
<path d="M0 0 C5.41060327 3.53770214 8.88518375 7.91542274 11 14 C12.17603208 21.57781964 11.46365864 28.15741508 7.6171875 34.83984375 C3.35195082 40.5371285 -1.99650343 43.72663699 -9 45 C-16.58126268 45.84236252 -22.06034811 42.92208008 -28.25 38.875 C-33.09900021 33.80559069 -36.22257069 28.09840583 -36.625 21 C-36.20438169 13.76991229 -32.97171719 7.4710045 -27.6875 2.5625 C-19.01667507 -4.076982 -9.84117145 -4.44381965 0 0 Z " fill="#E9F3FB" transform="translate(104,75)"/>
<path d="M0 0 C1.134375 0.020625 2.26875 0.04125 3.4375 0.0625 C4.0975 1.7125 4.7575 3.3625 5.4375 5.0625 C5.98019531 4.78535156 6.52289063 4.50820312 7.08203125 4.22265625 C7.79746094 3.86042969 8.51289062 3.49820313 9.25 3.125 C9.95769531 2.76535156 10.66539063 2.40570313 11.39453125 2.03515625 C17.8030127 -1.01591809 25.3629306 -0.89418815 32.19921875 0.7109375 C41.46962046 4.11639119 49.22190355 10.00489318 53.4375 19.0625 C56.58636603 27.10712946 56.8211108 36.26931298 53.875 44.4375 C50.00155665 52.74358099 43.23475649 59.70710537 34.70703125 63.171875 C26.13187905 65.50775875 15.66020996 65.25074798 7.61328125 61.3828125 C-0.01633805 56.75298966 -5.88641481 50.56005102 -8.1640625 41.73046875 C-9.84388078 30.48227381 -8.87203717 21.65757337 -2.5625 12.0625 C-1.9025 11.4025 -1.2425 10.7425 -0.5625 10.0625 C-1.8825 9.4025 -3.2025 8.7425 -4.5625 8.0625 C-4.60491723 5.72955225 -4.60342937 3.39547433 -4.5625 1.0625 C-3.5625 0.0625 -3.5625 0.0625 0 0 Z M3.4375 18.0625 C-0.39592658 23.97142085 -1.77661556 30.10796086 -0.5625 37.0625 C2.00131291 44.74259443 6.20200437 50.34665118 13.41796875 54.08984375 C20.29731176 56.97730494 26.37484676 56.58685638 33.30078125 54.0234375 C39.53738805 51.21867466 42.7220419 47.04389362 45.51171875 40.9375 C47.53941133 34.64053063 47.72436441 28.39747255 45.328125 22.1875 C41.55715211 15.37541995 37.17434206 11.46381577 29.9375 8.75 C19.56540405 6.71262401 10.38435328 9.98183388 3.4375 18.0625 Z " fill="#51ABF6" transform="translate(68.5625,63.9375)"/>
<path d="M0 0 C7.20800421 -0.48867825 7.20800421 -0.48867825 10.9375 1.8125 C17.95732746 9.25777155 14 20.01258089 14 30 C-22.96 30 -59.92 30 -98 30 C-98 26.7 -98 23.4 -98 20 C-63.35 20 -28.7 20 7 20 C6.505 12.575 6.505 12.575 6 5 C4.02 3.68 2.04 2.36 0 1 C0 0.67 0 0.34 0 0 Z " fill="#FF4155" transform="translate(102,8)"/>
<path d="M0 0 C7.20800421 -0.48867825 7.20800421 -0.48867825 10.9375 1.8125 C14.10201093 5.16879947 14.12209759 7.90033689 14.09765625 12.32421875 C14.09282227 13.86625977 14.09282227 13.86625977 14.08789062 15.43945312 C14.07532227 17.04723633 14.07532227 17.04723633 14.0625 18.6875 C14.05798828 19.77095703 14.05347656 20.85441406 14.04882812 21.97070312 C14.03703743 24.64719085 14.02058063 27.32356777 14 30 C11.69 30 9.38 30 7 30 C7 28.02 7 26.04 7 24 C-27.65 24 -62.3 24 -98 24 C-98 22.68 -98 21.36 -98 20 C-63.35 20 -28.7 20 7 20 C6.505 12.575 6.505 12.575 6 5 C4.02 3.68 2.04 2.36 0 1 C0 0.67 0 0.34 0 0 Z " fill="#E90453" transform="translate(102,8)"/>
<path d="M0 0 C0.58934326 0.81041748 1.17868652 1.62083496 1.78588867 2.45581055 C5.83454251 6.46977807 11.05814338 5.72679843 16.42578125 5.70703125 C18.07987251 5.72971321 18.07987251 5.72971321 19.76737976 5.75285339 C23.28262716 5.79577333 26.79701653 5.80457305 30.3125 5.8125 C32.69859059 5.83564079 35.08466072 5.86100524 37.47070312 5.88867188 C43.31381018 5.95156675 49.15658136 5.98646682 55 6 C55 4.35 55 2.7 55 1 C55.33 1 55.66 1 56 1 C56.495 7.93 56.495 7.93 57 15 C49.6860165 15.12363055 42.37264165 15.21435697 35.05786133 15.2746582 C32.56979782 15.29979671 30.08180812 15.33391247 27.59399414 15.37719727 C24.01690459 15.4378743 20.44079165 15.46621734 16.86328125 15.48828125 C15.19583611 15.52699089 15.19583611 15.52699089 13.4947052 15.56648254 C5.7734741 15.56928446 5.7734741 15.56928446 1.7890625 12.63671875 C-0.23634394 9.65167651 -0.5497295 8.2459425 -0.3125 4.6875 C-0.26738281 3.80449219 -0.22226562 2.92148438 -0.17578125 2.01171875 C-0.11777344 1.34785156 -0.05976562 0.68398437 0 0 Z " fill="#D3DCFB" transform="translate(4,92)"/>
<path d="M0 0 C9.32187226 -0.81059759 16.95205288 3.23970176 24.0234375 9.07421875 C29.40981094 14.32220711 32.57198892 20.79951917 33.3359375 28.296875 C33.46097435 39.35013287 31.54909184 47.1127394 23.859375 55.24609375 C16.82254953 61.88377156 10.69506414 64.27098953 0.9765625 64.0703125 C0.32429688 64.04710937 -0.32796875 64.02390625 -1 64 C-1 63.67 -1 63.34 -1 63 C-0.34773438 62.82984375 0.30453125 62.6596875 0.9765625 62.484375 C6.40752011 60.97844575 10.46415093 59.31891396 15 56 C16.485 55.505 16.485 55.505 18 55 C19.02651373 53.28480253 19.02651373 53.28480253 20 51 C20.66 49.88625 21.32 48.7725 22 47.625 C25.98656628 40.55925752 26.96335108 34.06684897 26 26 C22.96722953 15.88673753 18.68929788 9.55946204 9.55078125 4.29296875 C6.38410714 2.68780928 3.46109074 1.75241103 0 1 C0 0.67 0 0.34 0 0 Z " fill="#1E8AEB" transform="translate(91,64)"/>
<path d="M0 0 C7.28138345 -0.46476916 13.12037543 1.11716855 19.25 5.125 C24.60637677 10.72484844 27.29161487 15.57516745 27.625 23.4375 C27.29967779 30.76581094 25.36431069 36.61457439 20.1328125 41.87890625 C13.93659291 46.88169055 7.93689104 48.32395474 0 48 C0.57621094 47.71253906 1.15242188 47.42507812 1.74609375 47.12890625 C3.17789825 46.41176327 4.60782036 45.69083993 6.03515625 44.96484375 C6.70417969 44.62582031 7.37320313 44.28679687 8.0625 43.9375 C8.73410156 43.59589844 9.40570313 43.25429687 10.09765625 42.90234375 C12 42 12 42 15 41 C16.08431094 39.25132517 16.08431094 39.25132517 17 37 C17.5053125 36.10410156 18.010625 35.20820312 18.53125 34.28515625 C21.03795551 28.6784027 20.76800455 23.02060706 20 17 C18.92529997 14.4998298 17.76485249 12.58842263 16.09375 10.453125 C15 9 15 9 15 7 C11.8367155 5.3279782 8.6178082 4.07778864 5.25 2.875 C4.26515625 2.52179688 3.2803125 2.16859375 2.265625 1.8046875 C1.51796875 1.53914063 0.7703125 1.27359375 0 1 C0 0.67 0 0.34 0 0 Z " fill="#CEDBFA" transform="translate(88,72)"/>
<path d="M0 0 C2.31 0 4.62 0 7 0 C7 11.55 7 23.1 7 35 C-1 30 -1 30 -1.81640625 26.6784668 C-1.73261719 25.44781494 -1.64882812 24.21716309 -1.5625 22.94921875 C-1.52898437 22.29041214 -1.49546875 21.63160553 -1.4609375 20.95283508 C-1.34564408 18.85995821 -1.17384148 16.77624634 -1 14.6875 C-0.91160225 13.2652028 -0.82692608 11.84266909 -0.74609375 10.41992188 C-0.54041974 6.94283619 -0.283945 3.47167134 0 0 Z " fill="#D4DEFA" transform="translate(109,39)"/>
<path d="M0 0 C1.134375 0.144375 2.26875 0.28875 3.4375 0.4375 C5.84725706 4.05213559 5.76989432 6.7596926 5.75 10.9375 C5.76611328 11.61425781 5.78222656 12.29101562 5.79882812 12.98828125 C5.80170092 15.90129958 5.77872545 17.93770508 4.109375 20.3828125 C1.49381208 22.03281714 -0.55862658 21.8209732 -3.5625 21.4375 C-5.93040606 17.8856409 -6.04246714 15.72538425 -6.375 11.5 C-6.48457031 10.27410156 -6.59414062 9.04820313 -6.70703125 7.78515625 C-6.5625 4.4375 -6.5625 4.4375 -5.296875 2.0234375 C-3.5625 0.4375 -3.5625 0.4375 0 0 Z " fill="#D5DAF8" transform="translate(84.5625,-0.4375)"/>
<path d="M0 0 C1.134375 0.144375 2.26875 0.28875 3.4375 0.4375 C5.84725706 4.05213559 5.76989432 6.7596926 5.75 10.9375 C5.76611328 11.61425781 5.78222656 12.29101562 5.79882812 12.98828125 C5.80170092 15.90129958 5.77872545 17.93770508 4.109375 20.3828125 C1.49381208 22.03281714 -0.55862658 21.8209732 -3.5625 21.4375 C-5.93040606 17.8856409 -6.04246714 15.72538425 -6.375 11.5 C-6.48457031 10.27410156 -6.59414063 9.04820313 -6.70703125 7.78515625 C-6.5625 4.4375 -6.5625 4.4375 -5.296875 2.0234375 C-3.5625 0.4375 -3.5625 0.4375 0 0 Z " fill="#D5D9F7" transform="translate(35.5625,-0.4375)"/>
<path d="M0 0 C1.32 0.66 2.64 1.32 4 2 C4 6.95 4 11.9 4 17 C2.02 17.99 2.02 17.99 0 19 C-1.45668271 16.08663458 -1.43028143 13.29944543 -1.6875 10.0625 C-1.79449219 8.81597656 -1.90148437 7.56945312 -2.01171875 6.28515625 C-2 3 -2 3 0 0 Z " fill="#E9F2FB" transform="translate(80,1)"/>
<path d="M0 0 C1.32 0.66 2.64 1.32 4 2 C4 6.95 4 11.9 4 17 C2.02 17.99 2.02 17.99 0 19 C-1.45668271 16.08663458 -1.43028143 13.29944543 -1.6875 10.0625 C-1.79449219 8.81597656 -1.90148437 7.56945312 -2.01171875 6.28515625 C-2 3 -2 3 0 0 Z " fill="#E9F2FB" transform="translate(31,1)"/>
<path d="M0 0 C3.5 0.125 3.5 0.125 4.5 1.125 C4.625 4.625 4.625 4.625 4.5 8.125 C3.5 9.125 3.5 9.125 0 9.25 C-3.5 9.125 -3.5 9.125 -4.5 8.125 C-4.625 4.625 -4.625 4.625 -4.5 1.125 C-3.5 0.125 -3.5 0.125 0 0 Z " fill="#3C5499" transform="translate(102.5,46.875)"/>
<path d="M0 0 C3.5 0.125 3.5 0.125 4.5 1.125 C4.73529412 6.65441176 4.73529412 6.65441176 3.5 9.125 C1.16705225 9.16741723 -1.16702567 9.16592937 -3.5 9.125 C-4.5 8.125 -4.5 8.125 -4.625 4.625 C-4.46551724 0.15948276 -4.46551724 0.15948276 0 0 Z " fill="#395297" transform="translate(51.5,80.875)"/>
<path d="M0 0 C6.15234375 -0.09765625 6.15234375 -0.09765625 8 0 C9 1 9 1 9.1875 3.9375 C9 7 9 7 7 9 C3.9375 9.1875 3.9375 9.1875 1 9 C0 8 0 8 -0.09765625 6.15234375 C-0.06510417 4.1015625 -0.03255208 2.05078125 0 0 Z " fill="#3D5599" transform="translate(13,47)"/>
<path d="M0 0 C3.5 0.125 3.5 0.125 4.5 1.125 C4.6875 4.0625 4.6875 4.0625 4.5 7.125 C2.5 9.125 2.5 9.125 -0.5625 9.3125 C-3.5 9.125 -3.5 9.125 -4.5 8.125 C-4.625 4.625 -4.625 4.625 -4.5 1.125 C-3.5 0.125 -3.5 0.125 0 0 Z " fill="#395197" transform="translate(34.5,80.875)"/>
<path d="M0 0 C3.5 0.125 3.5 0.125 4.5 1.125 C4.6875 4.0625 4.6875 4.0625 4.5 7.125 C2.5 9.125 2.5 9.125 -0.5625 9.3125 C-3.5 9.125 -3.5 9.125 -4.5 8.125 C-4.625 4.625 -4.625 4.625 -4.5 1.125 C-3.5 0.125 -3.5 0.125 0 0 Z " fill="#395197" transform="translate(51.5,63.875)"/>
<path d="M0 0 C3.5 0.125 3.5 0.125 4.5 1.125 C4.6875 4.0625 4.6875 4.0625 4.5 7.125 C2.5 9.125 2.5 9.125 -0.5625 9.3125 C-3.5 9.125 -3.5 9.125 -4.5 8.125 C-4.625 4.625 -4.625 4.625 -4.5 1.125 C-3.5 0.125 -3.5 0.125 0 0 Z " fill="#395297" transform="translate(34.5,63.875)"/>
<path d="M0 0 C3.5 0.125 3.5 0.125 4.5 1.125 C4.6875 4.0625 4.6875 4.0625 4.5 7.125 C2.5 9.125 2.5 9.125 -0.5625 9.3125 C-3.5 9.125 -3.5 9.125 -4.5 8.125 C-4.625 4.625 -4.625 4.625 -4.5 1.125 C-3.5 0.125 -3.5 0.125 0 0 Z " fill="#3B5398" transform="translate(17.5,63.875)"/>
<path d="M0 0 C3.5 0.125 3.5 0.125 4.5 1.125 C4.6875 4.0625 4.6875 4.0625 4.5 7.125 C2.5 9.125 2.5 9.125 -0.5625 9.3125 C-3.5 9.125 -3.5 9.125 -4.5 8.125 C-4.625 4.625 -4.625 4.625 -4.5 1.125 C-3.5 0.125 -3.5 0.125 0 0 Z " fill="#2F478F" transform="translate(85.5,46.875)"/>
<path d="M0 0 C3.5 0.125 3.5 0.125 4.5 1.125 C4.6875 4.0625 4.6875 4.0625 4.5 7.125 C2.5 9.125 2.5 9.125 -0.5625 9.3125 C-3.5 9.125 -3.5 9.125 -4.5 8.125 C-4.625 4.625 -4.625 4.625 -4.5 1.125 C-3.5 0.125 -3.5 0.125 0 0 Z " fill="#395197" transform="translate(68.5,46.875)"/>
<path d="M0 0 C3.5 0.125 3.5 0.125 4.5 1.125 C4.6875 4.0625 4.6875 4.0625 4.5 7.125 C2.5 9.125 2.5 9.125 -0.5625 9.3125 C-3.5 9.125 -3.5 9.125 -4.5 8.125 C-4.625 4.625 -4.625 4.625 -4.5 1.125 C-3.5 0.125 -3.5 0.125 0 0 Z " fill="#395297" transform="translate(51.5,46.875)"/>
<path d="M0 0 C3.5 0.125 3.5 0.125 4.5 1.125 C4.6875 4.0625 4.6875 4.0625 4.5 7.125 C2.5 9.125 2.5 9.125 -0.5625 9.3125 C-3.5 9.125 -3.5 9.125 -4.5 8.125 C-4.625 4.625 -4.625 4.625 -4.5 1.125 C-3.5 0.125 -3.5 0.125 0 0 Z " fill="#3A5398" transform="translate(34.5,46.875)"/>
<path d="M0 0 C1.134375 0.020625 2.26875 0.04125 3.4375 0.0625 C3.53515625 6.21484375 3.53515625 6.21484375 3.4375 8.0625 C2.4375 9.0625 2.4375 9.0625 -0.5625 9.1875 C-3.5625 9.0625 -3.5625 9.0625 -4.5625 8.0625 C-4.6875 4.5625 -4.6875 4.5625 -4.5625 1.0625 C-3.5625 0.0625 -3.5625 0.0625 0 0 Z " fill="#334C94" transform="translate(17.5625,80.9375)"/>
<path d="M0 0 C1.134375 0.020625 2.26875 0.04125 3.4375 0.0625 C3.5625 3.4375 3.5625 3.4375 3.4375 7.0625 C1.4375 9.0625 1.4375 9.0625 -1.125 9.25 C-3.5625 9.0625 -3.5625 9.0625 -4.5625 8.0625 C-4.6875 4.5625 -4.6875 4.5625 -4.5625 1.0625 C-3.5625 0.0625 -3.5625 0.0625 0 0 Z " fill="#354E95" transform="translate(68.5625,63.9375)"/>
<path d="M0 0 C2.5625 0.1875 2.5625 0.1875 4.5625 2.1875 C4.00694444 6.74305556 4.00694444 6.74305556 2.5625 8.1875 C0.0625 8.3125 0.0625 8.3125 -2.4375 8.1875 C-3.4375 7.1875 -3.4375 7.1875 -3.5625 4.1875 C-3.39891479 0.26145498 -3.39891479 0.26145498 0 0 Z " fill="#FBDC47" transform="translate(91.4375,91.8125)"/>
<path d="M0 0 C0.99 0.33 1.98 0.66 3 1 C3 4.96 3 8.92 3 13 C1.68 13 0.36 13 -1 13 C-1.02686553 11.02090602 -1.04633375 9.04171029 -1.0625 7.0625 C-1.07410156 5.96035156 -1.08570312 4.85820313 -1.09765625 3.72265625 C-1 1 -1 1 0 0 Z " fill="#4E68A7" transform="translate(91,79)"/>
<path d="M0 0 C2.64 0 5.28 0 8 0 C8 1.32 8 2.64 8 4 C5.36 4 2.72 4 0 4 C0 2.68 0 1.36 0 0 Z " fill="#4761A5" transform="translate(96,94)"/>
<path d="M0 0 C0.66 0.33 1.32 0.66 2 1 C2 2.98 2 4.96 2 7 C3.32 7.66 4.64 8.32 6 9 C4.00045254 9.04254356 1.99958364 9.04080783 0 9 C-1 8 -1 8 -1.125 4.5 C-1 1 -1 1 0 0 Z " fill="#4C65A6" transform="translate(82,47)"/>
<path d="M0 0 C1.98 0 3.96 0 6 0 C6 1.32 6 2.64 6 4 C4.02 4 2.04 4 0 4 C0 2.68 0 1.36 0 0 Z " fill="#E90655" transform="translate(24,15)"/>
<path d="M0 0 C1.65 0 3.3 0 5 0 C5 1.32 5 2.64 5 4 C3.02 4 1.04 4 -1 4 C-0.67 2.68 -0.34 1.36 0 0 Z " fill="#E90554" transform="translate(90,15)"/>
<path d="M0 0 C1.65 0 3.3 0 5 0 C5 1.32 5 2.64 5 4 C3.02 4 1.04 4 -1 4 C-0.67 2.68 -0.34 1.36 0 0 Z " fill="#E90454" transform="translate(74,15)"/>
<path d="M0 0 C1.65 0 3.3 0 5 0 C5 1.32 5 2.64 5 4 C3.02 4 1.04 4 -1 4 C-0.67 2.68 -0.34 1.36 0 0 Z " fill="#E90554" transform="translate(41,15)"/>
<path d="M0 0 C1.9955516 3.99110319 2.19546065 5.69986566 2 10 C1.01 10.33 0.02 10.66 -1 11 C-0.67 7.37 -0.34 3.74 0 0 Z " fill="#5BB0F7" transform="translate(115,94)"/>
</svg>
